<svg xmlns="http://www.w3.org/2000/svg" viewBox="0 0 300 300">
  <g transform="translate(0,300) scale(0.1,-0.1)" fill="#09244B" stroke="none">
    <path d="M565 2621 c-49 -12 -89 -37 -128 -80 -70 -78 -68 -41 -65 -1067 l3
-919 22 -41 c12 -22 40 -57 62 -77 78 -70 40 -68 1067 -65 l919 3 41 22 c22
12 57 40 77 62 70 78 68 40 65 1067 l-3 919 -22 41 c-12 22 -40 57 -62 77 -77
69 -41 67 -1045 66 -496 -1 -914 -4 -931 -8z m668 -382 c47 -13 106 -63 123
-106 11 -26 14 -141 14 -570 0 -501 -2 -541 -19 -578 -41 -89 -84 -105 -290
-105 -170 0 -200 6 -244 48 -64 61 -62 36 -65 614 -2 374 1 540 9 570 14 53
73 112 126 126 51 13 298 15 346 1z m884 -4 c66 -20 107 -65 122 -135 17 -79
14 -405 -4 -467 -20 -68 -65 -108 -141 -123 -82 -17 -319 -9 -359 12 -39 21
-81 66 -94 101 -17 44 -14 469 3 510 16 40 77 95 114 103 15 3 32 7 37 9 33
11 277 3 322 -10z"/>
  </g>
</svg>
